<?xml version="1.0" encoding="utf-8"?>
<!-- Generator: Adobe Illustrator 27.4.1, SVG Export Plug-In . SVG Version: 6.00 Build 0)  -->
<svg version="1.1" id="Слой_1" xmlns="http://www.w3.org/2000/svg" xmlns:xlink="http://www.w3.org/1999/xlink" x="0px" y="0px"
	 viewBox="0 0 3672 3672" style="enable-background:new 0 0 3672 3672;" xml:space="preserve">
<style type="text/css">
	.st0{fill-rule:evenodd;clip-rule:evenodd;fill:#FFFFFF;stroke:#000000;stroke-width:0.5669;stroke-miterlimit:22.9256;}
</style>
<g>
	<path class="st0" d="M1755,1710.3h160.6c5.3,0,9.7,4.4,9.7,9.7v232.6c0,5.3-4.4,9.7-9.7,9.7H1755c-5.3,0-9.7-4.4-9.7-9.7V1720
		C1745.3,1714.6,1749.6,1710.3,1755,1710.3L1755,1710.3z"/>
	<path d="M1830.3,1846.4c-1,2.3-4.5,6.8-11.4,6.8c-8.6,0-13.8-7.3-13-14.1c0.8-6.8,6.2-12.1,13-11.8c-1.5-5.2-0.7-17,11.6-17.7
		c6.6-0.4,16.4,3.6,13,17.7c6.2-0.6,13,2.7,13.7,11.8c0.3,3.8-1.3,14.8-14.9,14.1c-3.2-0.2-8-2-10.1-6.8c-0.2,4.4,1.6,13.5,10.1,15
		v1.6h-21.5v-1.6C1823.8,1861,1829.7,1857.4,1830.3,1846.4L1830.3,1846.4z"/>
	<path d="M1761,1756c0.3,0.7,1.4,2.1,3.7,2.1c2.8,0,4.4-2.3,4.2-4.4c-0.3-2.1-2-3.8-4.2-3.6c0.5-1.6,0.2-5.3-3.8-5.5
		c-2.1-0.1-5.3,1.1-4.2,5.5c-2-0.2-4.2,0.8-4.4,3.6c-0.1,1.2,0.4,4.6,4.8,4.4c1-0.1,2.6-0.6,3.3-2.1c0.1,1.4-0.5,4.2-3.3,4.7v0.5
		h6.9v-0.5C1763.1,1760.5,1761.2,1759.4,1761,1756L1761,1756z"/>
	<path d="M1759.4,1738.4v2.4h-5.4v-2.4h1.8l3.3-17.8h3l3.4,17.8h1.8v2.4h-5.4v-2.4h1.2l-0.4-2.1h-4l-0.4,2.1H1759.4L1759.4,1738.4z
		 M1759.1,1733.8h3.1l-1.5-8.2L1759.1,1733.8L1759.1,1733.8z"/>
	<path d="M1902.1,1915.5c-0.3-0.7-1.4-2.1-3.7-2.1c-2.8,0-4.5,2.3-4.2,4.4c0.3,2.1,2,3.8,4.2,3.6c-0.5,1.6-0.2,5.3,3.8,5.5
		c2.1,0.1,5.3-1.1,4.2-5.5c2,0.2,4.2-0.8,4.4-3.6c0.1-1.2-0.4-4.6-4.8-4.4c-1,0.1-2.6,0.6-3.2,2.1c-0.1-1.4,0.5-4.2,3.2-4.7v-0.5
		h-6.9v0.5C1900,1911,1901.8,1912.1,1902.1,1915.5L1902.1,1915.5z"/>
	<path d="M1903.7,1933.1v-2.4h5.4v2.4h-1.8l-3.3,17.8h-3l-3.4-17.8h-1.8v-2.4h5.4v2.4h-1.2l0.4,2.1h4l0.4-2.1H1903.7L1903.7,1933.1z
		 M1904,1937.7h-3.1l1.5,8.2L1904,1937.7L1904,1937.7z"/>
</g>
</svg>
