<?xml version="1.0" encoding="utf-8"?>
<!-- Generator: Adobe Illustrator 27.4.1, SVG Export Plug-In . SVG Version: 6.00 Build 0)  -->
<svg version="1.1" id="Слой_1" xmlns="http://www.w3.org/2000/svg" xmlns:xlink="http://www.w3.org/1999/xlink" x="0px" y="0px"
	 viewBox="0 0 3672 3672" style="enable-background:new 0 0 3672 3672;" xml:space="preserve">
<style type="text/css">
	.st0{fill-rule:evenodd;clip-rule:evenodd;fill:#FFFFFF;stroke:#000000;stroke-width:0.5669;stroke-miterlimit:22.9256;}
	.st1{fill:#F00202;}
</style>
<g>
	<path class="st0" d="M1755,1710.3h160.6c5.3,0,9.7,4.4,9.7,9.7v232.6c0,5.3-4.4,9.7-9.7,9.7H1755c-5.3,0-9.7-4.4-9.7-9.7V1720
		C1745.3,1714.6,1749.6,1710.3,1755,1710.3L1755,1710.3z"/>
	<path class="st1" d="M1763.1,1723.7c-1.1,0-2,0.5-2.8,1.5c-0.7,0.9-1,1.9-1,3.1c0,1.2,0.3,2.2,1,3.1c0.7,1,1.7,1.5,2.8,1.5
		c0.9,0,1.8-0.4,2.5-1.1c0.6-0.7,1-1.5,1.3-2.5C1766.3,1725.5,1765.1,1723.7,1763.1,1723.7L1763.1,1723.7z M1766.7,1734.1
		c-1.1,0.9-2.3,1.3-3.7,1.3c-1.8,0-3.4-0.7-4.6-2.2c-1.2-1.4-1.8-3.1-1.8-4.9c0-1.9,0.6-3.5,1.8-4.9c1.2-1.5,2.8-2.2,4.6-2.2
		c2.3,0,4,1.2,5.1,3.6c0.9,1.8,1.3,4,1.3,6.6c0,2.7-0.4,4.9-1.3,6.7c-1.1,2.3-2.9,3.5-5.2,3.5c-2.3,0-4.2-1.2-5.5-3.6l2.2-1.3
		c0.9,1.6,2,2.3,3.3,2.3C1764.9,1738.9,1766.2,1737.3,1766.7,1734.1L1766.7,1734.1z"/>
	<path class="st1" d="M1756,1755c1.3-0.9,4.4-4.3,7.2-10.6c0.6,2,3,6.8,7.2,10.6c-1.8,1.5-5.7,5.8-7.2,10.6
		C1762.5,1763.6,1760.1,1758.9,1756,1755L1756,1755z"/>
	<path class="st1" d="M1907.3,1948.9c1.1,0,2-0.5,2.8-1.5c0.7-0.9,1-1.9,1-3.1c0-1.2-0.3-2.2-1-3.1c-0.7-1-1.7-1.5-2.8-1.5
		c-1,0-1.8,0.4-2.5,1.1c-0.6,0.7-1,1.5-1.3,2.5C1904,1947.1,1905.3,1948.9,1907.3,1948.9L1907.3,1948.9z M1903.7,1938.6
		c1.1-0.9,2.3-1.3,3.7-1.3c1.8,0,3.4,0.7,4.6,2.2c1.2,1.4,1.8,3.1,1.8,4.9c0,1.9-0.6,3.5-1.8,4.9c-1.2,1.5-2.8,2.2-4.6,2.2
		c-2.3,0-4-1.2-5.1-3.6c-0.9-1.8-1.3-4-1.3-6.6c0-2.7,0.4-4.9,1.3-6.7c1.1-2.3,2.9-3.5,5.3-3.5c2.3,0,4.2,1.2,5.5,3.6l-2.2,1.3
		c-0.9-1.6-2-2.3-3.3-2.3C1905.4,1933.7,1904.2,1935.3,1903.7,1938.6L1903.7,1938.6z"/>
	<path class="st1" d="M1914.4,1917.7c-1.3,0.9-4.4,4.3-7.2,10.6c-0.6-2-3-6.8-7.2-10.6c1.8-1.5,5.7-5.8,7.2-10.6
		C1907.9,1909,1910.2,1913.8,1914.4,1917.7L1914.4,1917.7z"/>
	<path class="st1" d="M1782.9,1760.7c2.7-1.9,9.5-9,15.4-21.8c1.4,4.1,6.4,14.1,15.5,21.8c-3.8,3.2-12.2,11.9-15.5,21.8
		C1796.8,1778.6,1791.8,1768.8,1782.9,1760.7L1782.9,1760.7z"/>
	<path class="st1" d="M1782.9,1911.9c2.7-1.9,9.5-9,15.4-21.8c1.4,4.1,6.4,14.1,15.5,21.8c-3.8,3.2-12.2,11.9-15.5,21.8
		C1796.8,1929.8,1791.8,1919.9,1782.9,1911.9L1782.9,1911.9z"/>
	<path class="st1" d="M1782.9,1811.1c2.7-1.9,9.5-9,15.4-21.8c1.4,4.1,6.4,14.1,15.5,21.8c-3.8,3.2-12.2,11.9-15.5,21.8
		C1796.8,1829,1791.8,1819.2,1782.9,1811.1L1782.9,1811.1z"/>
	<path class="st1" d="M1782.9,1861.5c2.7-1.9,9.5-9,15.4-21.8c1.4,4.1,6.4,14.1,15.5,21.8c-3.8,3.2-12.2,11.9-15.5,21.8
		C1796.8,1879.4,1791.8,1869.6,1782.9,1861.5L1782.9,1861.5z"/>
	<path class="st1" d="M1856.8,1760.7c2.7-1.9,9.5-9,15.4-21.8c1.4,4.1,6.4,14.1,15.5,21.8c-3.8,3.2-12.2,11.9-15.5,21.8
		C1870.7,1778.6,1865.7,1768.8,1856.8,1760.7L1856.8,1760.7z"/>
	<path class="st1" d="M1856.8,1911.9c2.7-1.9,9.5-9,15.4-21.8c1.4,4.1,6.4,14.1,15.5,21.8c-3.8,3.2-12.2,11.9-15.5,21.8
		C1870.7,1929.8,1865.7,1919.9,1856.8,1911.9L1856.8,1911.9z"/>
	<path class="st1" d="M1856.8,1811.1c2.7-1.9,9.5-9,15.4-21.8c1.4,4.1,6.4,14.1,15.5,21.8c-3.8,3.2-12.2,11.9-15.5,21.8
		C1870.7,1829,1865.7,1819.2,1856.8,1811.1L1856.8,1811.1z"/>
	<path class="st1" d="M1856.8,1861.5c2.7-1.9,9.5-9,15.4-21.8c1.4,4.1,6.4,14.1,15.5,21.8c-3.8,3.2-12.2,11.9-15.5,21.8
		C1870.7,1879.4,1865.7,1869.6,1856.8,1861.5L1856.8,1861.5z"/>
	<path class="st1" d="M1819.8,1836.3c2.7-1.9,9.5-9,15.4-21.8c1.4,4.1,6.4,14.1,15.5,21.8c-3.8,3.2-12.2,11.9-15.5,21.8
		C1833.8,1854.2,1828.7,1844.3,1819.8,1836.3L1819.8,1836.3z"/>
</g>
</svg>
