<svg xmlns="http://www.w3.org/2000/svg" xmlns:xlink="http://www.w3.org/1999/xlink" width="1100" zoomAndPan="magnify" viewBox="0 0 824.88 1499.999933" height="2000" preserveAspectRatio="xMidYMid meet" version="1.0"><defs><clipPath id="ebfb0e9d95"><path d="M 41.242188 1282 L 769 1282 L 769 1445 L 41.242188 1445 Z M 41.242188 1282 " clip-rule="nonzero"/></clipPath></defs><g clip-path="url(#ebfb0e9d95)"><path fill="#000000" d="M 652.9375 1282.765625 L 157.164062 1282.765625 C 93.214844 1282.765625 41.375 1331.214844 41.375 1390.914062 L 41.375 1444.273438 L 768.707031 1444.273438 L 768.707031 1390.914062 C 768.707031 1331.214844 716.886719 1282.765625 652.9375 1282.765625 " fill-opacity="1" fill-rule="nonzero"/></g><path fill="#000000" d="M 152.273438 1267.476562 C 160.90625 1269.015625 168.355469 1269.867188 173.390625 1269.867188 L 636.710938 1269.867188 C 641.746094 1269.867188 649.195312 1269.015625 657.828125 1267.476562 C 690.988281 1261.507812 741.746094 1245.113281 741.746094 1225.769531 C 741.746094 1206.507812 691.234375 1190.09375 658.078125 1184.125 C 651.441406 1182.917969 645.492188 1182.105469 640.789062 1181.835938 C 639.292969 1181.730469 637.917969 1181.691406 636.710938 1181.691406 L 173.390625 1181.691406 C 172.183594 1181.691406 170.808594 1181.730469 169.3125 1181.835938 C 164.609375 1182.105469 158.660156 1182.917969 152.023438 1184.125 C 118.863281 1190.09375 68.355469 1206.507812 68.355469 1225.769531 C 68.355469 1245.113281 119.113281 1261.507812 152.273438 1267.476562 " fill-opacity="1" fill-rule="nonzero"/><path fill="#000000" d="M 217.449219 961.585938 C 217.449219 972.339844 245.71875 981.511719 264.195312 984.863281 C 269.019531 985.714844 273.160156 986.195312 275.96875 986.195312 L 534.132812 986.195312 C 536.941406 986.195312 541.082031 985.714844 545.90625 984.863281 C 564.378906 981.511719 592.652344 972.339844 592.652344 961.585938 C 592.652344 950.832031 564.503906 941.71875 546.03125 938.371094 C 542.328125 937.726562 539.019531 937.246094 536.398438 937.101562 C 535.566406 937.039062 534.820312 937.039062 534.132812 937.039062 L 275.96875 937.039062 C 275.28125 937.039062 274.53125 937.039062 273.699219 937.101562 C 271.078125 937.246094 267.773438 937.726562 264.070312 938.371094 C 245.597656 941.71875 217.449219 950.832031 217.449219 961.585938 " fill-opacity="1" fill-rule="nonzero"/><path fill="#000000" d="M 257.683594 498.765625 C 262.738281 499.679688 267.0625 500.160156 270.019531 500.160156 L 540.101562 500.160156 C 543.035156 500.160156 547.363281 499.679688 552.398438 498.765625 C 571.722656 495.3125 601.324219 485.722656 601.324219 474.425781 C 601.324219 463.191406 571.867188 453.667969 552.542969 450.152344 C 548.671875 449.464844 545.21875 448.984375 542.472656 448.820312 C 541.601562 448.757812 540.808594 448.714844 540.101562 448.714844 L 270.019531 448.714844 C 269.289062 448.714844 268.5 448.757812 267.625 448.820312 C 264.878906 448.984375 261.425781 449.464844 257.558594 450.152344 C 238.230469 453.667969 208.773438 463.191406 208.773438 474.425781 C 208.773438 485.722656 238.355469 495.3125 257.683594 498.765625 " fill-opacity="1" fill-rule="nonzero"/><path fill="#000000" d="M 282.457031 435.816406 C 286.640625 436.628906 290.257812 437.003906 292.695312 437.003906 L 517.40625 437.003906 C 519.839844 437.003906 523.460938 436.628906 527.640625 435.816406 C 543.722656 432.949219 568.332031 425.023438 568.332031 415.640625 C 568.332031 406.28125 543.847656 398.332031 527.765625 395.398438 C 524.542969 394.816406 521.652344 394.441406 519.382812 394.296875 C 518.65625 394.296875 517.988281 394.234375 517.40625 394.234375 L 292.695312 394.234375 C 292.109375 394.234375 291.445312 394.296875 290.71875 394.296875 C 288.449219 394.441406 285.558594 394.816406 282.332031 395.398438 C 266.253906 398.332031 241.769531 406.28125 241.769531 415.640625 C 241.769531 425.023438 266.378906 432.949219 282.457031 435.816406 " fill-opacity="1" fill-rule="nonzero"/><path fill="#000000" d="M 629.054688 1121.199219 C 616.035156 1101.707031 573.449219 1036.410156 560.824219 997.96875 L 248.21875 997.96875 C 235.234375 1037.53125 190.488281 1105.535156 178.902344 1122.777344 C 166.023438 1132.847656 157.140625 1147.761719 155.125 1164.859375 L 654.976562 1164.859375 C 652.855469 1146.847656 643.097656 1131.203125 629.054688 1121.199219 " fill-opacity="1" fill-rule="nonzero"/><path fill="#000000" d="M 537.398438 921.023438 C 517.28125 864.566406 467.457031 702.832031 478.503906 511.871094 L 331.59375 511.871094 C 342.640625 702.832031 292.816406 864.566406 272.703125 921.023438 L 537.398438 921.023438 " fill-opacity="1" fill-rule="nonzero"/><path fill="#000000" d="M 255.039062 203.109375 C 289.988281 257.421875 315.515625 342.375 326.332031 382.460938 L 483.769531 382.460938 C 494.585938 342.375 520.109375 257.421875 555.058594 203.109375 C 555.058594 203.109375 518.34375 190.542969 450.003906 189.691406 C 437.210938 175.210938 428.226562 157.261719 424.605469 137.457031 C 447.964844 141.929688 468.644531 153.847656 484.101562 170.675781 C 487.199219 174.027344 492.839844 171.84375 492.878906 167.265625 L 493.296875 118.484375 L 493.691406 69.707031 C 493.734375 65.128906 488.136719 62.839844 484.976562 66.148438 C 469.144531 82.808594 448.113281 94.417969 424.542969 98.410156 C 428.746094 74.886719 440.539062 53.957031 457.308594 38.292969 C 460.65625 35.152344 458.429688 29.515625 453.855469 29.515625 L 356.246094 29.515625 C 351.667969 29.515625 349.445312 35.152344 352.792969 38.292969 C 369.457031 53.894531 381.210938 74.65625 385.496094 98.039062 C 362.132812 93.566406 341.457031 81.644531 326 64.816406 C 322.898438 61.46875 317.261719 63.652344 317.21875 68.226562 L 316.804688 117.007812 L 316.410156 165.832031 C 316.367188 170.40625 321.964844 172.652344 325.125 169.347656 C 340.957031 152.726562 361.96875 141.078125 385.558594 137.082031 C 381.980469 157.050781 372.972656 175.109375 360.09375 189.691406 C 291.777344 190.542969 255.039062 203.109375 255.039062 203.109375 " fill-opacity="1" fill-rule="nonzero"/></svg>